<svg xmlns="http://www.w3.org/2000/svg" viewBox="0 0 640 360" role="img" aria-labelledby="title desc">
  <title id="title">Crystal Sky blog mark</title>
  <desc id="desc">A stylized crystal prism under a clear sky.</desc>
  <defs>
    <linearGradient id="sky" x1="0" x2="1" y1="0" y2="1">
      <stop offset="0" stop-color="#dff7ff"/>
      <stop offset="0.48" stop-color="#f8fbff"/>
      <stop offset="1" stop-color="#fff4dc"/>
    </linearGradient>
    <linearGradient id="facetA" x1="0" x2="1" y1="0" y2="1">
      <stop offset="0" stop-color="#43c6ac"/>
      <stop offset="1" stop-color="#2d7ff9"/>
    </linearGradient>
    <linearGradient id="facetB" x1="0" x2="1" y1="0" y2="1">
      <stop offset="0" stop-color="#f6c85f"/>
      <stop offset="1" stop-color="#ef6f6c"/>
    </linearGradient>
  </defs>
  <rect width="640" height="360" rx="24" fill="url(#sky)"/>
  <circle cx="500" cy="78" r="38" fill="#ffd166" opacity="0.9"/>
  <path d="M92 266 C180 230 250 244 318 260 C388 278 454 250 548 216 L584 360 L70 360 Z" fill="#22324d" opacity="0.11"/>
  <path d="M320 48 L478 151 L421 312 L219 312 L162 151 Z" fill="#ffffff" stroke="#172033" stroke-width="9" stroke-linejoin="round"/>
  <path d="M320 48 L320 312 L162 151 Z" fill="url(#facetA)" opacity="0.88"/>
  <path d="M320 48 L478 151 L320 312 Z" fill="#87e5cf" opacity="0.76"/>
  <path d="M162 151 L320 312 L219 312 Z" fill="#2d7ff9" opacity="0.82"/>
  <path d="M478 151 L421 312 L320 312 Z" fill="url(#facetB)" opacity="0.86"/>
  <path d="M162 151 L320 182 L478 151" fill="none" stroke="#ffffff" stroke-width="8" opacity="0.72"/>
  <path d="M320 48 L320 182" fill="none" stroke="#ffffff" stroke-width="8" opacity="0.72"/>
</svg>
